{
  "asset": {
    "version": "2.0",
    "generator": "THREE.GLTFExporter"
  },
  "scenes": [
    {
      "nodes": [
        0
      ]
    }
  ],
  "scene": 0,
  "nodes": [
    {
      "children": [
        5
      ],
      "matrix": [
        0.01,
        0,
        0,
        0,
        0,
        0.01,
        0,
        0,
        0,
        0,
        0.01,
        0,
        0,
        0,
        0,
        1
      ]
    },
    {
      "matrix": [
        1,
        0,
        0,
        0,
        0,
        1,
        0,
        0,
        0,
        0,
        1,
        0,
        135.001,
        -73,
        0,
        1
      ],
      "name": "Shape 0",
      "mesh": 0
    },
    {
      "name": "J",
      "children": [
        1
      ]
    },
    {
      "matrix": [
        0.9098897844297116,
        -2.085052360975559e-8,
        0.41485006953169545,
        0,
        0.060178721682949424,
        0.9894226652377252,
        -0.13198981388911243,
        0,
        -0.41046205871804897,
        0.14506133018098236,
        0.9002655768377823,
        0,
        -401.6725643156675,
        -20.36710928302574,
        857.6748155163964,
        1
      ],
      "name": "Personal Camera",
      "camera": 0
    },
    {
      "matrix": [
        1,
        0,
        0,
        0,
        0,
        1,
        0,
        0,
        0,
        0,
        1,
        0,
        0,
        1,
        0,
        1
      ],
      "name": "Default Ambient Light"
    },
    {
      "name": "Scene 1",
      "children": [
        2,
        3,
        4
      ]
    }
  ],
  "bufferViews": [
    {
      "buffer": 0,
      "byteOffset": 0,
      "byteLength": 2592,
      "target": 34962,
      "byteStride": 12
    },
    {
      "buffer": 0,
      "byteOffset": 2592,
      "byteLength": 2592,
      "target": 34962,
      "byteStride": 12
    },
    {
      "buffer": 0,
      "byteOffset": 5184,
      "byteLength": 1728,
      "target": 34962,
      "byteStride": 8
    },
    {
      "buffer": 0,
      "byteOffset": 6912,
      "byteLength": 2448,
      "target": 34963
    }
  ],
  "buffers": [
    {
      "byteLength": 9360,
      "uri": "data:application/octet-stream;base64,"
    }
  ],
  "accessors": [
    {
      "bufferView": 0,
      "componentType": 5126,
      "count": 216,
      "max": [
        229.99899291992188,
        0,
        50
      ],
      "min": [
        0,
        -354,
        0
      ],
      "type": "VEC3"
    },
    {
      "bufferView": 1,
      "componentType": 5126,
      "count": 216,
      "max": [
        1,
        1,
        1
      ],
      "min": [
        -1,
        -0.9989908933639526,
        -1
      ],
      "type": "VEC3"
    },
    {
      "bufferView": 2,
      "componentType": 5126,
      "count": 216,
      "max": [
        1,
        1
      ],
      "min": [
        0,
        0
      ],
      "type": "VEC2"
    },
    {
      "bufferView": 3,
      "componentType": 5125,
      "count": 612,
      "max": [
        215
      ],
      "min": [
        0
      ],
      "type": "SCALAR"
    }
  ],
  "meshes": [
    {
      "primitives": [
        {
          "mode": 4,
          "attributes": {
            "POSITION": 0,
            "NORMAL": 1,
            "TEXCOORD_0": 2
          },
          "extras": {
            "parameters": {
              "width": 229.999,
              "subdivisions": 12,
              "roundness": 0,
              "extrudeBevelSize": 0,
              "extrudeBevelSegments": 1,
              "windingRule": 0,
              "shape": {
                "points": [
                  {
                    "fi": 0,
                    "id": "c3b9100b-d1b3-407a-b0b5-a5c9775d1508",
                    "data": {
                      "roundness": 0,
                      "position": [
                        158.30499999999998,
                        0
                      ],
                      "areControlsDirectionsMirrored": true,
                      "controlPrevious": {
                        "position": [
                          158.30499999999998,
                          0
                        ]
                      },
                      "controlNext": {
                        "position": [
                          158.30499999999998,
                          0
                        ]
                      }
                    }
                  },
                  {
                    "fi": 1,
                    "id": "a151b110-2ed1-448f-9598-75d43244f342",
                    "data": {
                      "roundness": 0,
                      "position": [
                        229.999,
                        0
                      ],
                      "areControlsDirectionsMirrored": true,
                      "controlPrevious": {
                        "position": [
                          229.999,
                          0
                        ]
                      },
                      "controlNext": {
                        "position": [
                          229.999,
                          0
                        ]
                      }
                    }
                  },
                  {
                    "fi": 2,
                    "id": "49b57032-c2d0-4911-aa6f-b3d600d53847",
                    "data": {
                      "roundness": 0,
                      "position": [
                        229.999,
                        -243.55599999999998
                      ],
                      "areControlsDirectionsMirrored": true,
                      "controlPrevious": {
                        "position": [
                          229.999,
                          -243.55599999999998
                        ]
                      },
                      "controlNext": {
                        "position": [
                          229.999,
                          -311.317
                        ]
                      }
                    }
                  },
                  {
                    "fi": 3,
                    "id": "2eb5f006-246a-4153-8e04-ed1201eb90c0",
                    "data": {
                      "roundness": 0,
                      "position": [
                        112.112,
                        -354
                      ],
                      "areControlsDirectionsMirrored": true,
                      "controlPrevious": {
                        "position": [
                          182.12300000000002,
                          -354
                        ]
                      },
                      "controlNext": {
                        "position": [
                          49.07900000000001,
                          -354
                        ]
                      }
                    }
                  },
                  {
                    "fi": 4,
                    "id": "592faf7e-fe24-41c1-877c-a8fbee90bc4d",
                    "data": {
                      "roundness": 0,
                      "position": [
                        0,
                        -251.755
                      ],
                      "areControlsDirectionsMirrored": true,
                      "controlPrevious": {
                        "position": [
                          -0.24100000000001387,
                          -320.722
                        ]
                      },
                      "controlNext": {
                        "position": [
                          0,
                          -251.755
                        ]
                      }
                    }
                  },
                  {
                    "fi": 5,
                    "id": "9b871578-7076-430d-9229-959c94a6b1db",
                    "data": {
                      "roundness": 0,
                      "position": [
                        72.17499999999998,
                        -251.755
                      ],
                      "areControlsDirectionsMirrored": true,
                      "controlPrevious": {
                        "position": [
                          72.17499999999998,
                          -251.755
                        ]
                      },
                      "controlNext": {
                        "position": [
                          72.65699999999998,
                          -279.486
                        ]
                      }
                    }
                  },
                  {
                    "fi": 6,
                    "id": "9fb31d97-52ba-4165-a3f6-3c839213432f",
                    "data": {
                      "roundness": 0,
                      "position": [
                        115.481,
                        -295.643
                      ],
                      "areControlsDirectionsMirrored": true,
                      "controlPrevious": {
                        "position": [
                          89.49699999999999,
                          -295.643
                        ]
                      },
                      "controlNext": {
                        "position": [
                          143.148,
                          -295.643
                        ]
                      }
                    }
                  },
                  {
                    "fi": 7,
                    "id": "006aafac-cc73-4065-903b-3341669f6797",
                    "data": {
                      "roundness": 0,
                      "position": [
                        158.30499999999998,
                        -243.55599999999998
                      ],
                      "areControlsDirectionsMirrored": true,
                      "controlPrevious": {
                        "position": [
                          158.30499999999998,
                          -277.798
                        ]
                      },
                      "controlNext": {
                        "position": [
                          158.30499999999998,
                          -243.55599999999998
                        ]
                      }
                    }
                  }
                ],
                "isClosed": true,
                "roundness": 0,
                "shapeHoles": []
              },
              "type": "VectorGeometry",
              "height": 354,
              "depth": 50
            },
            "shape": {
              "points": [
                158.30499999999998,
                0,
                158.30499999999998,
                0,
                158.30499999999998,
                0,
                0,
                229.999,
                0,
                229.999,
                0,
                229.999,
                0,
                0,
                229.999,
                -243.55599999999998,
                229.999,
                -243.55599999999998,
                229.999,
                -311.317,
                0,
                112.112,
                -354,
                182.12300000000002,
                -354,
                49.07900000000001,
                -354,
                0,
                0,
                -251.755,
                -0.24100000000001387,
                -320.722,
                0,
                -251.755,
                0,
                72.17499999999998,
                -251.755,
                72.17499999999998,
                -251.755,
                72.65699999999998,
                -279.486,
                0,
                115.481,
                -295.643,
                89.49699999999999,
                -295.643,
                143.148,
                -295.643,
                0,
                158.30499999999998,
                -243.55599999999998,
                158.30499999999998,
                -277.798,
                158.30499999999998,
                -243.55599999999998,
                0
              ],
              "shapeHoles": [],
              "isClosed": true,
              "roundness": 0
            },
            "type": "VectorGeometry"
          },
          "indices": 3
        }
      ]
    }
  ],
  "cameras": [
    {
      "type": "orthographic",
      "orthographic": {
        "xmag": 9.4091762,
        "ymag": 4.84425555921875,
        "zfar": 100000,
        "znear": 0
      },
      "name": "Camera"
    }
  ]
}